<?xml version="1.0" encoding="utf-8"?>
<!-- Generator: Adobe Illustrator 24.3.0, SVG Export Plug-In . SVG Version: 6.00 Build 0)  -->
<svg version="1.1" id="Capa_1" xmlns="http://www.w3.org/2000/svg" xmlns:xlink="http://www.w3.org/1999/xlink" x="0px" y="0px"
	 viewBox="0 0 24 24" style="enable-background:new 0 0 24 24;" xml:space="preserve">
<g>
	<g>
		<path d="M6.9,4.6L6.9,4.6c1.2,0,2.5,0.7,3.3,1.6L12,8.4l1.8-2.2c0.8-0.9,2.1-1.6,3.4-1.6l0,0l0,0l0,0c2.3,0,4.2,1.9,4.2,4.2
			c0,1.9-1.7,4.3-4.8,6.9c-1.8,1.5-3.6,2.7-4.7,3.3c-1.1-0.6-2.9-1.8-4.7-3.4c-1.5-1.2-2.6-2.5-3.4-3.6C3,10.8,2.5,9.7,2.5,8.8
			C2.6,6.5,4.5,4.6,6.9,4.6L6.9,4.6L6.9,4.6L6.9,4.6 M6.9,2.1L6.9,2.1C3.1,2.1,0,5.1,0,8.9c0,6.4,11.2,12.7,11.7,13
			C11.8,22,11.9,22,12,22s0.2,0,0.3-0.1c0.5-0.2,11.7-6.4,11.7-13c0-3.8-3-6.8-6.8-6.8l0,0c-2,0-3.9,0.9-5.2,2.4
			C10.8,2.9,8.9,2.1,6.9,2.1L6.9,2.1z"/>
	</g>
</g>
</svg>
