<svg width="20" height="20" viewBox="0 0 20 20" fill="none" xmlns="http://www.w3.org/2000/svg">
<g clip-path="url(#clip0)">
<path fill-rule="evenodd" clip-rule="evenodd" d="M13 20C16.866 20 20 16.866 20 13C20 9.13404 16.866 6.00003 13 6.00003C9.13404 6.00003 6.00003 9.13404 6.00003 13C6.00003 16.866 9.13404 20 13 20ZM13 18C15.7615 18 18 15.7615 18 13C18 10.2386 15.7615 8.00003 13 8.00003C10.2386 8.00003 8.00003 10.2386 8.00003 13C8.00003 15.7615 10.2386 18 13 18Z" fill="white"/>
<path d="M15.7456 10.2544C15.4064 9.91523 14.8569 9.91523 14.5181 10.2544L13.0004 11.7723L11.4825 10.2544C11.1433 9.91523 10.5937 9.91523 10.2545 10.2544C9.9152 10.5934 9.9152 11.1436 10.2545 11.4822L11.7723 13L10.2545 14.5178C9.9152 14.8568 9.9152 15.4068 10.2545 15.7457C10.4238 15.9154 10.6461 16 10.8685 16C11.0908 16 11.3126 15.9154 11.4825 15.7457L13.0003 14.228L14.518 15.7457C14.6875 15.9154 14.9098 16 15.1315 16C15.3539 16 15.5763 15.9154 15.7456 15.7457C16.0848 15.4068 16.0848 14.8568 15.7456 14.5178L14.2278 13L15.7456 11.4822C16.0848 11.1435 16.0848 10.5934 15.7456 10.2544Z" fill="white"/>
<path fill-rule="evenodd" clip-rule="evenodd" d="M6.07089 14H1C0.447715 14 0 14.4477 0 15V16C0 16.5523 0.447715 17 1 17H7.25469C6.64436 16.125 6.22881 15.1041 6.07089 14Z" fill="white"/>
<rect y="2" width="16" height="3" rx="1" fill="white"/>
<path fill-rule="evenodd" clip-rule="evenodd" d="M8.10102 8H1C0.447715 8 0 8.44772 0 9V10C0 10.5523 0.447716 11 1 11H6.28988C6.63282 9.84768 7.2645 8.81972 8.10102 8Z" fill="white"/>
</g>
<defs>
<clipPath id="clip0">
<rect width="20" height="20" fill="white"/>
</clipPath>
</defs>
</svg>
