<svg width="186" height="12" viewBox="0 0 186 12" fill="none" xmlns="http://www.w3.org/2000/svg">
<path d="M6.95898 1.00586H9.09863L5.70117 11H3.39062L0 1.00586H2.13965L4.01953 6.95312C4.12435 7.30404 4.23145 7.71419 4.34082 8.18359C4.45475 8.64844 4.52539 8.97201 4.55273 9.1543C4.60286 8.73503 4.77376 8.0013 5.06543 6.95312L6.95898 1.00586ZM10.1104 1.38184C10.1104 0.702799 10.4886 0.363281 11.2451 0.363281C12.0016 0.363281 12.3799 0.702799 12.3799 1.38184C12.3799 1.7054 12.2842 1.95833 12.0928 2.14062C11.9059 2.31836 11.6234 2.40723 11.2451 2.40723C10.4886 2.40723 10.1104 2.06543 10.1104 1.38184ZM12.2842 11H10.1992V3.35742H12.2842V11ZM21.3213 11H19.2363V6.53613C19.2363 5.9847 19.1429 5.57227 18.9561 5.29883C18.7738 5.02083 18.4844 4.88184 18.0879 4.88184C17.5547 4.88184 17.1673 5.0778 16.9258 5.46973C16.6842 5.86165 16.5635 6.50651 16.5635 7.4043V11H14.4785V3.35742H16.0713L16.3516 4.33496H16.4678C16.6729 3.98405 16.9691 3.71061 17.3564 3.51465C17.7438 3.31413 18.1882 3.21387 18.6895 3.21387C19.8333 3.21387 20.6081 3.58757 21.0137 4.33496H21.1982C21.4033 3.97949 21.7041 3.70378 22.1006 3.50781C22.5016 3.31185 22.9528 3.21387 23.4541 3.21387C24.32 3.21387 24.974 3.43717 25.416 3.88379C25.8626 4.32585 26.0859 5.03678 26.0859 6.0166V11H23.9941V6.53613C23.9941 5.9847 23.9007 5.57227 23.7139 5.29883C23.5316 5.02083 23.2422 4.88184 22.8457 4.88184C22.3353 4.88184 21.9525 5.06413 21.6973 5.42871C21.4466 5.79329 21.3213 6.37207 21.3213 7.16504V11ZM31.3975 4.69727C30.9554 4.69727 30.609 4.83854 30.3584 5.12109C30.1077 5.39909 29.9642 5.79557 29.9277 6.31055H32.8535C32.8444 5.79557 32.71 5.39909 32.4502 5.12109C32.1904 4.83854 31.8395 4.69727 31.3975 4.69727ZM31.6914 11.1367C30.4609 11.1367 29.4993 10.7972 28.8066 10.1182C28.1139 9.43913 27.7676 8.47754 27.7676 7.2334C27.7676 5.9528 28.0866 4.96387 28.7246 4.2666C29.3672 3.56478 30.2536 3.21387 31.3838 3.21387C32.4639 3.21387 33.3047 3.52148 33.9062 4.13672C34.5078 4.75195 34.8086 5.60189 34.8086 6.68652V7.69824H29.8799C29.9027 8.29069 30.0781 8.75326 30.4062 9.08594C30.7344 9.41862 31.1947 9.58496 31.7871 9.58496C32.2474 9.58496 32.6826 9.53711 33.0928 9.44141C33.5029 9.3457 33.9313 9.19303 34.3779 8.9834V10.5967C34.0133 10.779 33.6237 10.9134 33.209 11C32.7943 11.0911 32.2884 11.1367 31.6914 11.1367ZM38.165 7.16504C38.165 7.92155 38.2881 8.49349 38.5342 8.88086C38.7848 9.26823 39.1904 9.46191 39.751 9.46191C40.307 9.46191 40.7057 9.27051 40.9473 8.8877C41.1934 8.50033 41.3164 7.92611 41.3164 7.16504C41.3164 6.40853 41.1934 5.84115 40.9473 5.46289C40.7012 5.08464 40.2979 4.89551 39.7373 4.89551C39.1813 4.89551 38.7803 5.08464 38.5342 5.46289C38.2881 5.83659 38.165 6.40397 38.165 7.16504ZM43.4492 7.16504C43.4492 8.40918 43.1211 9.38216 42.4648 10.084C41.8086 10.7858 40.8949 11.1367 39.7236 11.1367C38.9899 11.1367 38.3428 10.9772 37.7822 10.6582C37.2217 10.3346 36.791 9.87207 36.4902 9.27051C36.1895 8.66895 36.0391 7.96712 36.0391 7.16504C36.0391 5.91634 36.3649 4.94564 37.0166 4.25293C37.6683 3.56022 38.5843 3.21387 39.7646 3.21387C40.4984 3.21387 41.1455 3.37337 41.7061 3.69238C42.2666 4.01139 42.6973 4.4694 42.998 5.06641C43.2988 5.66341 43.4492 6.36296 43.4492 7.16504ZM46.6826 5.93457H45.5342V2.02441H44.1875V1.00586H48.043V2.02441H46.6826V5.93457ZM50.6133 5.93457L49.4854 2.31836H49.4375L49.4648 3.07715V5.93457H48.3506V1.00586H50.0391L51.1328 4.49219L52.2949 1.00586H53.9355V5.93457H52.7871V3.14551L52.8145 2.31836H52.7734L51.584 5.93457H50.6133ZM65.1602 1.00586H67.2998L63.9023 11H61.5918L58.2012 1.00586H60.3408L62.2207 6.95312C62.3255 7.30404 62.4326 7.71419 62.542 8.18359C62.6559 8.64844 62.7266 8.97201 62.7539 9.1543C62.804 8.73503 62.9749 8.0013 63.2666 6.95312L65.1602 1.00586ZM68.3115 1.38184C68.3115 0.702799 68.6898 0.363281 69.4463 0.363281C70.2028 0.363281 70.5811 0.702799 70.5811 1.38184C70.5811 1.7054 70.4854 1.95833 70.2939 2.14062C70.1071 2.31836 69.8245 2.40723 69.4463 2.40723C68.6898 2.40723 68.3115 2.06543 68.3115 1.38184ZM70.4854 11H68.4004V3.35742H70.4854V11ZM75.0996 11.1367C74.2018 11.1367 73.4954 10.7881 72.9805 10.0908C72.4701 9.39355 72.2148 8.42741 72.2148 7.19238C72.2148 5.93913 72.4746 4.96387 72.9941 4.2666C73.5182 3.56478 74.2383 3.21387 75.1543 3.21387C76.1159 3.21387 76.8496 3.58757 77.3555 4.33496H77.4238C77.319 3.7653 77.2666 3.25716 77.2666 2.81055V0.363281H79.3584V11H77.7588L77.3555 10.0088H77.2666C76.7926 10.7607 76.0703 11.1367 75.0996 11.1367ZM75.8311 9.47559C76.3643 9.47559 76.7539 9.32064 77 9.01074C77.2507 8.70085 77.3874 8.17448 77.4102 7.43164V7.20605C77.4102 6.38574 77.2826 5.79785 77.0273 5.44238C76.7767 5.08691 76.3665 4.90918 75.7969 4.90918C75.332 4.90918 74.9697 5.10742 74.71 5.50391C74.4548 5.89583 74.3271 6.46777 74.3271 7.21973C74.3271 7.97168 74.457 8.53678 74.7168 8.91504C74.9766 9.28874 75.348 9.47559 75.8311 9.47559ZM84.7041 4.69727C84.262 4.69727 83.9157 4.83854 83.665 5.12109C83.4144 5.39909 83.2708 5.79557 83.2344 6.31055H86.1602C86.151 5.79557 86.0166 5.39909 85.7568 5.12109C85.4971 4.83854 85.1462 4.69727 84.7041 4.69727ZM84.998 11.1367C83.7676 11.1367 82.806 10.7972 82.1133 10.1182C81.4206 9.43913 81.0742 8.47754 81.0742 7.2334C81.0742 5.9528 81.3932 4.96387 82.0312 4.2666C82.6738 3.56478 83.5602 3.21387 84.6904 3.21387C85.7705 3.21387 86.6113 3.52148 87.2129 4.13672C87.8145 4.75195 88.1152 5.60189 88.1152 6.68652V7.69824H83.1865C83.2093 8.29069 83.3848 8.75326 83.7129 9.08594C84.041 9.41862 84.5013 9.58496 85.0938 9.58496C85.554 9.58496 85.9893 9.53711 86.3994 9.44141C86.8096 9.3457 87.238 9.19303 87.6846 8.9834V10.5967C87.32 10.779 86.9303 10.9134 86.5156 11C86.1009 11.0911 85.5951 11.1367 84.998 11.1367ZM91.4717 7.16504C91.4717 7.92155 91.5947 8.49349 91.8408 8.88086C92.0915 9.26823 92.4971 9.46191 93.0576 9.46191C93.6136 9.46191 94.0124 9.27051 94.2539 8.8877C94.5 8.50033 94.623 7.92611 94.623 7.16504C94.623 6.40853 94.5 5.84115 94.2539 5.46289C94.0078 5.08464 93.6045 4.89551 93.0439 4.89551C92.488 4.89551 92.0869 5.08464 91.8408 5.46289C91.5947 5.83659 91.4717 6.40397 91.4717 7.16504ZM96.7559 7.16504C96.7559 8.40918 96.4277 9.38216 95.7715 10.084C95.1152 10.7858 94.2015 11.1367 93.0303 11.1367C92.2965 11.1367 91.6494 10.9772 91.0889 10.6582C90.5283 10.3346 90.0977 9.87207 89.7969 9.27051C89.4961 8.66895 89.3457 7.96712 89.3457 7.16504C89.3457 5.91634 89.6715 4.94564 90.3232 4.25293C90.9749 3.56022 91.891 3.21387 93.0713 3.21387C93.805 3.21387 94.4521 3.37337 95.0127 3.69238C95.5732 4.01139 96.0039 4.4694 96.3047 5.06641C96.6055 5.66341 96.7559 6.36296 96.7559 7.16504ZM110.571 5.90723C110.571 7.55241 110.102 8.8125 109.163 9.6875C108.229 10.5625 106.878 11 105.109 11H102.279V1.00586H105.417C107.049 1.00586 108.315 1.43652 109.218 2.29785C110.12 3.15918 110.571 4.3623 110.571 5.90723ZM108.37 5.96191C108.37 3.81543 107.422 2.74219 105.526 2.74219H104.398V9.25H105.308C107.349 9.25 108.37 8.15397 108.37 5.96191ZM114.14 7.16504C114.14 7.92155 114.263 8.49349 114.509 8.88086C114.759 9.26823 115.165 9.46191 115.726 9.46191C116.282 9.46191 116.68 9.27051 116.922 8.8877C117.168 8.50033 117.291 7.92611 117.291 7.16504C117.291 6.40853 117.168 5.84115 116.922 5.46289C116.676 5.08464 116.272 4.89551 115.712 4.89551C115.156 4.89551 114.755 5.08464 114.509 5.46289C114.263 5.83659 114.14 6.40397 114.14 7.16504ZM119.424 7.16504C119.424 8.40918 119.096 9.38216 118.439 10.084C117.783 10.7858 116.869 11.1367 115.698 11.1367C114.965 11.1367 114.317 10.9772 113.757 10.6582C113.196 10.3346 112.766 9.87207 112.465 9.27051C112.164 8.66895 112.014 7.96712 112.014 7.16504C112.014 5.91634 112.34 4.94564 112.991 4.25293C113.643 3.56022 114.559 3.21387 115.739 3.21387C116.473 3.21387 117.12 3.37337 117.681 3.69238C118.241 4.01139 118.672 4.4694 118.973 5.06641C119.273 5.66341 119.424 6.36296 119.424 7.16504ZM127.429 11L126.841 8.32715L126.048 4.9502H126L124.605 11H122.363L120.189 3.35742H122.268L123.149 6.74121C123.291 7.34733 123.434 8.18359 123.58 9.25H123.621C123.639 8.90365 123.719 8.35449 123.86 7.60254L123.97 7.02148L124.913 3.35742H127.21L128.105 7.02148C128.124 7.12174 128.151 7.26986 128.188 7.46582C128.229 7.66178 128.267 7.87142 128.304 8.09473C128.34 8.31348 128.372 8.52995 128.399 8.74414C128.431 8.95378 128.45 9.1224 128.454 9.25H128.495C128.536 8.92188 128.609 8.47298 128.714 7.90332C128.819 7.3291 128.894 6.94173 128.939 6.74121L129.855 3.35742H131.899L129.698 11H127.429ZM140.191 11H138.106V6.53613C138.106 5.9847 138.008 5.57227 137.812 5.29883C137.617 5.02083 137.304 4.88184 136.876 4.88184C136.293 4.88184 135.871 5.0778 135.611 5.46973C135.352 5.8571 135.222 6.50195 135.222 7.4043V11H133.137V3.35742H134.729L135.01 4.33496H135.126C135.358 3.96582 135.677 3.68783 136.083 3.50098C136.493 3.30957 136.958 3.21387 137.478 3.21387C138.366 3.21387 139.041 3.4554 139.501 3.93848C139.961 4.41699 140.191 5.1097 140.191 6.0166V11ZM144.423 11H142.338V0.363281H144.423V11ZM148.278 7.16504C148.278 7.92155 148.401 8.49349 148.647 8.88086C148.898 9.26823 149.304 9.46191 149.864 9.46191C150.42 9.46191 150.819 9.27051 151.061 8.8877C151.307 8.50033 151.43 7.92611 151.43 7.16504C151.43 6.40853 151.307 5.84115 151.061 5.46289C150.814 5.08464 150.411 4.89551 149.851 4.89551C149.295 4.89551 148.894 5.08464 148.647 5.46289C148.401 5.83659 148.278 6.40397 148.278 7.16504ZM153.562 7.16504C153.562 8.40918 153.234 9.38216 152.578 10.084C151.922 10.7858 151.008 11.1367 149.837 11.1367C149.103 11.1367 148.456 10.9772 147.896 10.6582C147.335 10.3346 146.904 9.87207 146.604 9.27051C146.303 8.66895 146.152 7.96712 146.152 7.16504C146.152 5.91634 146.478 4.94564 147.13 4.25293C147.782 3.56022 148.698 3.21387 149.878 3.21387C150.612 3.21387 151.259 3.37337 151.819 3.69238C152.38 4.01139 152.811 4.4694 153.111 5.06641C153.412 5.66341 153.562 6.36296 153.562 7.16504ZM160.139 11L159.735 9.96094H159.681C159.33 10.403 158.967 10.7106 158.594 10.8838C158.225 11.0524 157.742 11.1367 157.145 11.1367C156.411 11.1367 155.832 10.9271 155.408 10.5078C154.989 10.0885 154.779 9.49154 154.779 8.7168C154.779 7.9056 155.062 7.30859 155.627 6.92578C156.197 6.53841 157.053 6.32422 158.197 6.2832L159.523 6.24219V5.90723C159.523 5.13249 159.127 4.74512 158.334 4.74512C157.723 4.74512 157.006 4.92969 156.181 5.29883L155.49 3.89062C156.37 3.43034 157.345 3.2002 158.416 3.2002C159.441 3.2002 160.228 3.4235 160.774 3.87012C161.321 4.31673 161.595 4.99577 161.595 5.90723V11H160.139ZM159.523 7.45898L158.717 7.48633C158.111 7.50456 157.66 7.61393 157.363 7.81445C157.067 8.01497 156.919 8.32031 156.919 8.73047C156.919 9.31836 157.256 9.6123 157.931 9.6123C158.414 9.6123 158.799 9.47331 159.086 9.19531C159.378 8.91732 159.523 8.54818 159.523 8.08789V7.45898ZM166.168 11.1367C165.27 11.1367 164.564 10.7881 164.049 10.0908C163.538 9.39355 163.283 8.42741 163.283 7.19238C163.283 5.93913 163.543 4.96387 164.062 4.2666C164.587 3.56478 165.307 3.21387 166.223 3.21387C167.184 3.21387 167.918 3.58757 168.424 4.33496H168.492C168.387 3.7653 168.335 3.25716 168.335 2.81055V0.363281H170.427V11H168.827L168.424 10.0088H168.335C167.861 10.7607 167.139 11.1367 166.168 11.1367ZM166.899 9.47559C167.433 9.47559 167.822 9.32064 168.068 9.01074C168.319 8.70085 168.456 8.17448 168.479 7.43164V7.20605C168.479 6.38574 168.351 5.79785 168.096 5.44238C167.845 5.08691 167.435 4.90918 166.865 4.90918C166.4 4.90918 166.038 5.10742 165.778 5.50391C165.523 5.89583 165.396 6.46777 165.396 7.21973C165.396 7.97168 165.525 8.53678 165.785 8.91504C166.045 9.28874 166.416 9.47559 166.899 9.47559ZM175.772 4.69727C175.33 4.69727 174.984 4.83854 174.733 5.12109C174.483 5.39909 174.339 5.79557 174.303 6.31055H177.229C177.219 5.79557 177.085 5.39909 176.825 5.12109C176.565 4.83854 176.215 4.69727 175.772 4.69727ZM176.066 11.1367C174.836 11.1367 173.874 10.7972 173.182 10.1182C172.489 9.43913 172.143 8.47754 172.143 7.2334C172.143 5.9528 172.462 4.96387 173.1 4.2666C173.742 3.56478 174.629 3.21387 175.759 3.21387C176.839 3.21387 177.68 3.52148 178.281 4.13672C178.883 4.75195 179.184 5.60189 179.184 6.68652V7.69824H174.255C174.278 8.29069 174.453 8.75326 174.781 9.08594C175.109 9.41862 175.57 9.58496 176.162 9.58496C176.622 9.58496 177.058 9.53711 177.468 9.44141C177.878 9.3457 178.306 9.19303 178.753 8.9834V10.5967C178.388 10.779 177.999 10.9134 177.584 11C177.169 11.0911 176.663 11.1367 176.066 11.1367ZM185.145 3.21387C185.427 3.21387 185.662 3.23438 185.849 3.27539L185.691 5.23047C185.523 5.1849 185.318 5.16211 185.076 5.16211C184.411 5.16211 183.891 5.33301 183.518 5.6748C183.148 6.0166 182.964 6.49512 182.964 7.11035V11H180.879V3.35742H182.458L182.766 4.64258H182.868C183.105 4.21419 183.424 3.87012 183.825 3.61035C184.231 3.34603 184.671 3.21387 185.145 3.21387Z" fill="white"/>
</svg>
