<svg width="16" height="16" viewBox="0 0 16 16" fill="none" xmlns="http://www.w3.org/2000/svg">
<g clip-path="url(#clip0)">
<path d="M3.99093 12.1486C3.33844 11.5611 2.86774 10.8566 2.55935 10.1003C1.74131 8.09411 2.12436 5.70815 3.72149 4.06233L5.19527 5.5361C5.27642 5.61726 5.4225 5.55883 5.44198 5.43872L6.24704 0.170125C6.26003 0.0824778 6.18536 0.00781507 6.09772 0.0207999L0.825875 0.825859C0.705766 0.845336 0.647334 0.991416 0.728489 1.07257L2.20551 2.54959C-0.232388 5.04268 -0.647902 8.78231 0.952478 11.7039C1.43292 12.5836 2.09839 13.3887 2.94565 14.0639C4.38696 15.2098 6.15939 15.7584 7.91884 15.7227L8.24995 13.5575C6.73397 13.6873 5.17579 13.2199 3.99093 12.1486Z" fill="white"/>
<path d="M13.7944 13.4504C16.2323 10.9573 16.6479 7.21765 15.0475 4.29606C14.567 3.41634 13.9016 2.61128 13.0543 1.93607C11.613 0.790156 9.84056 0.241547 8.08111 0.277256L7.75 2.44248C9.26273 2.31263 10.8242 2.78008 12.009 3.85133C12.6615 4.43889 13.1322 5.14332 13.4406 5.89969C14.2586 7.90584 13.8756 10.2918 12.2785 11.9376L10.8047 10.4639C10.7235 10.3827 10.5774 10.4411 10.558 10.5612L9.75291 15.8298C9.73992 15.9175 9.81459 15.9921 9.90223 15.9792L15.1741 15.1741C15.2942 15.1546 15.3494 15.0085 15.2715 14.9274L13.7944 13.4504Z" fill="white"/>
</g>
<defs>
<clipPath id="clip0">
<rect width="16" height="16" fill="white"/>
</clipPath>
</defs>
</svg>
