<svg width="16" height="16" viewBox="0 0 16 16" fill="none" xmlns="http://www.w3.org/2000/svg">
<g clip-path="url(#clip0)">
<mask id="path-1-inside-1" fill="white">
<path fill-rule="evenodd" clip-rule="evenodd" d="M6.2623 1.2131L5 5.00002L9 8.00002L8 15L11 7.00002L8 4.00002L8.99304 1.51741C10.3791 0.800353 12.1096 0.774724 13.5271 1.54974C15.0521 2.39105 16 3.99495 16.0001 5.7362C16.0001 6.23391 15.919 6.73256 15.761 7.21209C15.0147 10.586 8.58879 14.657 8.31515 14.8271L8 15.026L7.68486 14.8266C7.41121 14.6553 0.982368 10.5854 0.219774 7.15393C0.0794765 6.73723 0 6.23933 0 5.7362C0 3.99448 0.947722 2.39105 2.47091 1.55279C3.63096 0.908324 5.02602 0.817595 6.2623 1.2131Z"/>
</mask>
<path fill-rule="evenodd" clip-rule="evenodd" d="M6.2623 1.2131L5 5.00002L9 8.00002L8 15L11 7.00002L8 4.00002L8.99304 1.51741C10.3791 0.800353 12.1096 0.774724 13.5271 1.54974C15.0521 2.39105 16 3.99495 16.0001 5.7362C16.0001 6.23391 15.919 6.73256 15.761 7.21209C15.0147 10.586 8.58879 14.657 8.31515 14.8271L8 15.026L7.68486 14.8266C7.41121 14.6553 0.982368 10.5854 0.219774 7.15393C0.0794765 6.73723 0 6.23933 0 5.7362C0 3.99448 0.947722 2.39105 2.47091 1.55279C3.63096 0.908324 5.02602 0.817595 6.2623 1.2131Z" fill="#1A2E3B"/>
<path d="M5 5.00002L3.10263 4.36756L2.64679 5.7351L3.8 6.60002L5 5.00002ZM6.2623 1.2131L8.15967 1.84556L8.79984 -0.0749531L6.87171 -0.691792L6.2623 1.2131ZM9 8.00002L10.9799 8.28286L11.1474 7.11054L10.2 6.40002L9 8.00002ZM8 15L6.0201 14.7172L9.87266 15.7023L8 15ZM11 7.00002L12.8727 7.70226L13.3248 6.49643L12.4142 5.5858L11 7.00002ZM8 4.00002L6.14305 3.25723L5.65326 4.4817L6.58579 5.41423L8 4.00002ZM8.99304 1.51741L8.07407 -0.258962L7.41266 0.083208L7.13609 0.774627L8.99304 1.51741ZM13.5271 1.54974L14.4932 -0.201459L14.4866 -0.205088L13.5271 1.54974ZM16.0001 5.7362H18.0001V5.73609L16.0001 5.7362ZM15.761 7.21209L13.8615 6.5862L13.83 6.68182L13.8082 6.78012L15.761 7.21209ZM8.31515 14.8271L7.25933 13.1284L7.24758 13.1358L8.31515 14.8271ZM8 15.026L6.93062 16.7161L7.99873 17.3919L9.06757 16.7172L8 15.026ZM7.68486 14.8266L8.75425 13.1365L8.74618 13.1314L7.68486 14.8266ZM0.219774 7.15393L2.17214 6.72005L2.14911 6.61639L2.11523 6.51576L0.219774 7.15393ZM2.47091 1.55279L3.43521 3.30499L3.44219 3.30111L2.47091 1.55279ZM6.89737 5.63247L8.15967 1.84556L4.36494 0.580647L3.10263 4.36756L6.89737 5.63247ZM10.2 6.40002L6.2 3.40002L3.8 6.60002L7.8 9.60002L10.2 6.40002ZM9.9799 15.2829L10.9799 8.28286L7.0201 7.71717L6.0201 14.7172L9.9799 15.2829ZM9.12734 6.29777L6.12734 14.2978L9.87266 15.7023L12.8727 7.70226L9.12734 6.29777ZM6.58579 5.41423L9.58579 8.41423L12.4142 5.5858L9.41421 2.5858L6.58579 5.41423ZM7.13609 0.774627L6.14305 3.25723L9.85695 4.7428L10.85 2.26019L7.13609 0.774627ZM14.4866 -0.205088C12.4582 -1.31411 10.0227 -1.26707 8.07407 -0.258962L9.91201 3.29378C10.7355 2.86778 11.761 2.86356 12.5676 3.30457L14.4866 -0.205088ZM18.0001 5.73609C18 3.26561 16.6553 0.991329 14.4932 -0.201446L12.561 3.30093C13.4489 3.79077 14 4.7243 14.0001 5.73631L18.0001 5.73609ZM17.6605 7.83798C17.8837 7.16065 18.0001 6.45089 18.0001 5.7362H14.0001C14.0001 6.01693 13.9543 6.30447 13.8615 6.5862L17.6605 7.83798ZM9.37095 16.5257C9.54939 16.4148 11.3132 15.2975 13.1494 13.7506C14.067 12.9776 15.0458 12.0615 15.8612 11.0775C16.6505 10.125 17.4261 8.94474 17.7138 7.64405L13.8082 6.78012C13.7228 7.16638 13.4152 7.76024 12.7813 8.52523C12.1734 9.25881 11.3886 10.0037 10.5723 10.6914C8.94056 12.066 7.35456 13.0693 7.25935 13.1285L9.37095 16.5257ZM9.06757 16.7172L9.38271 16.5183L7.24758 13.1358L6.93244 13.3348L9.06757 16.7172ZM6.61547 16.5167L6.93062 16.7161L9.06939 13.3359L8.75424 13.1365L6.61547 16.5167ZM-1.73259 7.58782C-1.44169 8.8968 -0.667684 10.0851 0.125922 11.0482C0.944002 12.041 1.92501 12.9631 2.84467 13.7403C4.68549 15.2961 6.45124 16.4139 6.62353 16.5218L8.74618 13.1314C8.64482 13.068 7.05934 12.0652 5.42667 10.6853C4.60959 9.99474 3.8233 9.24524 3.21294 8.50451C2.57811 7.73407 2.26254 7.1268 2.17214 6.72005L-1.73259 7.58782ZM-2 5.7362C-2 6.43582 -1.89146 7.15119 -1.67568 7.7921L2.11523 6.51576C2.05042 6.32327 2 6.04285 2 5.7362H-2ZM1.50662 -0.199396C-0.656091 0.99082 -2 3.26606 -2 5.7362H2C2 4.7229 2.55153 3.79128 3.4352 3.30497L1.50662 -0.199396ZM6.87171 -0.691792C5.15441 -1.24118 3.1821 -1.13022 1.49963 -0.195531L3.44219 3.30111C4.07982 2.94687 4.89762 2.87637 5.6529 3.118L6.87171 -0.691792Z" fill="#1A2E3B" mask="url(#path-1-inside-1)"/>
</g>
<defs>
<clipPath id="clip0">
<rect width="16" height="16" fill="white"/>
</clipPath>
</defs>
</svg>
