<svg width="79" height="79" viewBox="0 0 79 79" fill="none" xmlns="http://www.w3.org/2000/svg">
<g opacity="0.15">
<path d="M15.4297 46.2891C17.134 46.2891 18.5156 44.9074 18.5156 43.2031C18.5156 41.4988 17.134 40.1172 15.4297 40.1172C13.7254 40.1172 12.3438 41.4988 12.3438 43.2031C12.3438 44.9074 13.7254 46.2891 15.4297 46.2891Z" fill="#A7B4B9"/>
<path d="M75.9141 51.998C77.6184 51.998 79 50.6165 79 48.9121V35.1797C79 34.0664 78.4004 33.0394 77.431 32.4923C76.4614 31.9452 75.2723 31.9623 74.3193 32.5377L61.8727 40.0504C61.8493 35.6966 59.5584 31.8717 56.1252 29.6917C59.6476 26.5795 61.873 22.0314 61.873 16.9727C61.873 7.61393 54.2591 0 44.9004 0C35.5684 0 27.972 7.57058 27.9288 16.8927C26.5744 10.5116 20.8969 5.70898 14.1182 5.70898C6.33342 5.70898 0 12.0424 0 19.8271C0 24.0251 1.8423 27.8001 4.76006 30.3885C1.86607 32.6494 0 36.1684 0 40.1172V66.6562C0 73.4626 5.53741 79 12.3438 79H49.5293C56.3356 79 61.873 73.4626 61.873 66.6562V66.5266L74.3368 73.9375C75.2907 74.5047 76.4754 74.5158 77.4398 73.9675C78.4043 73.4189 79 72.3947 79 71.2852V64.3418C79 62.6374 77.6184 61.2559 75.9141 61.2559C74.2097 61.2559 72.8281 62.6374 72.8281 64.3418V65.8601L60.3643 58.4492C59.4105 57.8818 58.2258 57.8709 57.2614 58.4193C56.2969 58.9678 55.7012 59.992 55.7012 61.1016V66.6562C55.7012 70.0594 52.9325 72.8281 49.5293 72.8281H12.3438C8.94058 72.8281 6.17188 70.0594 6.17188 66.6562V40.1172C6.17188 36.714 8.94058 33.9453 12.3438 33.9453H49.5293C52.9325 33.9453 55.7012 36.714 55.7012 40.1172V45.5176C55.7012 46.6308 56.3008 47.6577 57.2702 48.205C58.2397 48.7521 59.4287 48.735 60.3819 48.1595L72.8281 40.6469V48.9121C72.8281 50.6165 74.2097 51.998 75.9141 51.998ZM14.1182 27.7734C9.7366 27.7734 6.17188 24.2087 6.17188 19.8271C6.17188 15.4456 9.7366 11.8809 14.1182 11.8809C18.4997 11.8809 22.0645 15.4456 22.0645 19.8271C22.0645 24.2087 18.4997 27.7734 14.1182 27.7734ZM25.7815 27.7734C27.2686 25.5975 28.1637 22.9867 28.2319 20.1742C28.7779 23.0226 30.0371 25.6207 31.8174 27.7734H25.7815ZM44.9004 27.7734C38.9448 27.7734 34.0996 22.9282 34.0996 16.9727C34.0996 11.0171 38.9448 6.17188 44.9004 6.17188C50.8559 6.17188 55.7012 11.0171 55.7012 16.9727C55.7012 22.9282 50.8559 27.7734 44.9004 27.7734Z" fill="#A7B4B9"/>
</g>
</svg>
